<svg version="1.1" id="Layer_1" xmlns="http://www.w3.org/2000/svg" xmlns:xlink="http://www.w3.org/1999/xlink" x="0px" y="0px" viewBox="0 0 26 23" style="enable-background:new 0 0 26 23;" xml:space="preserve">
    <style type="text/css">
	.st0{clip-path:url(#SVGID_00000090256995671976998240000006921746551394632616_);}
	.st1{fill:#A32422;}
	.st2{fill:#DC382C;}
	.st3{fill:#FFFFFF;}
	.st4{fill:#741113;}
	.st5{fill:#AC2724;}
</style>
    <g id="Layer_2_00000029013001788586001810000003837164109191757189_">
        <g id="Layer_1-2">
            <g>
                <defs>
                    <rect id="SVGID_1_" x="1" y="1" width="24" height="20.5" />
                </defs>
                <clipPath id="SVGID_00000125586679956937132000000011508702079010383510_">
                    <use xlink:href="#SVGID_1_" style="overflow:visible;" />
                </clipPath>
                <g style="clip-path:url(#SVGID_00000125586679956937132000000011508702079010383510_);">
                    <path class="st1" d="M24,16.9c-1.3,0.7-7.9,3.4-9.3,4.1c-1.4,0.7-2.2,0.7-3.3,0.2c-1.1-0.5-8.1-3.4-9.4-4c-0.6-0.3-1-0.6-1-0.8      V14c0,0,9.2-2,10.7-2.5s2-0.6,3.3-0.1c1.3,0.5,8.8,1.8,10.1,2.3V16C25,16.3,24.7,16.5,24,16.9L24,16.9z" />
                    <path class="st2" d="M24,14.5c-1.3,0.7-7.9,3.4-9.3,4.1s-2.2,0.7-3.3,0.2c-1.1-0.5-8.1-3.4-9.4-4s-1.3-1,0-1.5s8.3-3.2,9.7-3.8      c1.5-0.5,2-0.6,3.3-0.1c1.3,0.5,7.9,3.1,9.1,3.5S25.3,13.8,24,14.5L24,14.5z" />
                    <path class="st1" d="M24,12.9c-1.3,0.7-7.9,3.4-9.3,4.1c-1.4,0.7-2.2,0.7-3.3,0.2s-8.2-3.4-9.4-4c-0.6-0.3-1-0.6-1-0.8v-2.4      c0,0,9.2-2,10.7-2.5s2-0.6,3.3-0.1S23.7,9.2,25,9.7v2.4C25,12.3,24.7,12.6,24,12.9z" />
                    <path class="st2" d="M24,10.5c-1.3,0.7-7.9,3.4-9.3,4.1s-2.2,0.7-3.3,0.2c-1.1-0.5-8.1-3.4-9.4-4s-1.3-1,0-1.5      c1.2-0.5,8.3-3.2,9.7-3.8s2-0.6,3.3-0.1S22.8,8.6,24,9S25.3,9.8,24,10.5L24,10.5z" />
                    <path class="st1" d="M24,8.8c-1.3,0.7-7.9,3.4-9.3,4.1s-2.2,0.7-3.3,0.2S3.2,9.8,2,9.2C1.3,8.9,1,8.6,1,8.4V5.9      c0,0,9.2-2,10.7-2.5s2-0.6,3.3-0.1s8.8,1.8,10,2.3V8C25,8.3,24.7,8.5,24,8.8z" />
                    <path class="st2" d="M24,6.4c-1.3,0.7-7.9,3.4-9.3,4.1c-1.4,0.7-2.2,0.7-3.3,0.2c-1.1-0.5-8.1-3.4-9.4-4s-1.3-1,0-1.5      s8.3-3.2,9.7-3.8s2-0.6,3.3-0.1s7.9,3.1,9.1,3.5C25.3,5.4,25.3,5.7,24,6.4L24,6.4z" />
                </g>
            </g>
            <polygon class="st3" points="13.4,3 14.9,2.5 14.5,3.5 16.1,4.1 14.1,4.3 13.6,5.4 12.8,4.2 10.4,4 12.2,3.3 11.7,2.3 13.4,3     13.4,3   " />
            <polygon class="st3" points="13.5,9.5 9.6,7.9 15.1,7 13.5,9.5 13.5,9.5   " />
            <path class="st3" d="M8.1,4.7c1.6,0,3,0.5,3,1.1S9.7,7,8.1,7s-3-0.5-3-1.1S6.5,4.7,8.1,4.7z" />
            <polygon class="st4" points="18.6,4.4 21.9,5.7 18.6,7 18.6,4.4 18.6,4.4   " />
            <polygon class="st5" points="18.6,4.4 18.6,7 18.2,7.1 14.9,5.8 18.6,4.4 18.6,4.4   " />
        </g>
    </g>
</svg>